<?xml version="1.0" encoding="utf-8"?>
<!-- Generator: Adobe Illustrator 16.0.0, SVG Export Plug-In . SVG Version: 6.00 Build 0)  -->
<!DOCTYPE svg PUBLIC "-//W3C//DTD SVG 1.1//EN" "http://www.w3.org/Graphics/SVG/1.1/DTD/svg11.dtd">
<svg version="1.1" id="Layer_1" xmlns="http://www.w3.org/2000/svg" xmlns:xlink="http://www.w3.org/1999/xlink" x="0px" y="0px"
	 width="150px" height="250px" viewBox="0 0 150 250" enable-background="new 0 0 150 250" xml:space="preserve">
<g>
	<path fill="#D5AE6D" d="M121.534,135.791c-0.926,31.276,9.046,84.78-27.563,100.2c-13.954,5.875-31.786,4.009-43.243-6.316
		c-14.499-13.071-16.713-34.981-18.346-53.151c-0.935-10.384-1.43-20.814-1.195-31.24c0.126-5.68-3.975-15.78,0-19.967
		c7.222-7.624,19.881-10.432,30.037-11.636c13.405-1.583,27.224-1.336,40.633,0.114c6.353,0.679,16.545,2.54,19.598,9.018
		C123.151,126.405,121.25,131.972,121.534,135.791"/>
	<path fill="#875539" d="M41.401,91.545c1.843,1.916,3.472,3.69,4.708,5.071c1.753-1.388,4.215-3.29,7.18-5.468
		c-1.706-1.812-3.446-3.587-5.222-5.326C45.834,87.718,43.605,89.619,41.401,91.545z M75.672,76.409
		c-2.319-2.264-4.616-4.428-6.774-6.337c-2.759,1.598-6.183,4.023-9.76,6.775c3.14,3.013,4.547,6.917,8.628,4.321
		C70.355,79.514,72.993,77.922,75.672,76.409z M49.491,84.62c2.051,2.023,3.855,3.896,5.305,5.418
		c2.659-1.945,5.65-4.061,8.833-6.175c-1.967-1.98-3.961-3.933-5.97-5.863C54.893,80.15,52.178,82.37,49.491,84.62z M46.739,84.527
		c-3.429-3.323-4.364-6.881-8.241-2.757c-1.14,1.201-2.249,2.418-3.338,3.662c2.83,2.561,3.574,5.962,6.954,3.035
		C43.649,87.145,45.189,85.829,46.739,84.527z M56.314,76.713c-2.099-1.987-4.214-3.933-6.245-5.722
		c-2.609,1.974-5.362,4.491-7.809,6.91c2.015,1.754,3.982,3.564,5.899,5.424C50.84,81.077,53.557,78.87,56.314,76.713z
		 M136.245,101.065c-1.767-14.146-8.629-27.436-20.094-36.107c-6.628-5.008-14.26-8.367-22.202-10.673
		c-4.061-1.181-15.149-1.202-15.807-6.605c-1.246-10.121,8.418-21.771,17.314-25.271c-0.347,0.134-7.859-10.715-8.559-11.706
		c-14.395,6.989-22.993,21.148-24.027,36.941c-0.31,6.225-17.25,8.522-21.828,10.638c-6.993,3.24-13.529,8.389-18.501,14.259
		c-9.963,11.775-9.674,25.532-9.245,40.088c0.341,11.536,2.554,26.304,16.254,28.581c2.511-1.86-2.057-6.789-2.403-8.438
		c-1.283-6.118,3.7-10.531,8.451-13.409c12.71-7.696,28.794-8.169,43.208-8.376c12.646-0.184,27.943-0.67,39.438,5.405
		c10.487,5.544,4.675,11.648,4.675,20.553C138.091,135.742,137.589,111.794,136.245,101.065z M111.533,98.786
		c-0.432-0.077-0.871-0.148-1.303-0.226c-1.682-2.434-3.557-4.761-5.402-7.073c-3.304-4.145-6.5-0.595-10.49,1.796
		c1.621,1.783,3.396,3.523,4.804,5.482c0.664,0.927-0.735,2.319-1.45,1.11l0.007,0.043c-2.978-4.413-4.046-5.978-8.637-3.226
		c-1.364,0.22-1.726-0.283-1.079-1.508c0.153-0.105,1.469-1.038,3.478-2.319c-3.155-3.45-4.795-7.9-9.458-5.509
		c-2.743,1.407-5.443,2.886-8.119,4.42c1.026,1.082,5.257,8.339,2.051,4.881c-2.863-3.091-2.482-4.689-6.64-2.172
		c-2.25,1.358-4.47,2.758-6.657,4.201c-0.991,0.65-6.132,1.944-3.288-0.021c3.755-2.597,7.638-5.008,11.578-7.321
		c-1.966-2.051-3.947-4.096-5.941-6.117c-3.013,1.994-5.977,4.066-8.899,6.188c0.214,0.233,3.143,2.595,2.01,3.6
		c-1.109,0.97-3.323-2.284-3.514-2.489c-2.44,1.789-4.853,3.606-7.229,5.48c1.055,0.624,1.387,1.479,1.003,2.575
		c-1.689,1.443-1.21-2.411-3.952-0.22c-0.439-0.043-0.871-0.084-1.309-0.127c-0.192-1.21,0.326-2.029,1.563-2.461
		c-3.819-4.237-3.691-5.708-8.1-1.987c-1.145,0.961-2.872-0.24-1.556-1.098l-0.042,0.015c1.322-0.941,2.532-2.199,3.742-3.268
		c-2.66-2.708-5.426-5.41-8.432-7.737c-0.057-0.432-0.106-0.869-0.163-1.301c1.498-1.945,2.354,3.218,5.021,0.269
		c1.436-1.584,2.899-3.14,4.399-4.661c-2.851-2.391-4.158-5.757-0.283-2.631c2.922,2.355,6.662-3.522,9.399-5.623
		c-0.743-0.629-1.463-1.237-2.171-1.817c-0.048-0.432-0.09-0.869-0.143-1.302c0.992-1.223,3.164,2.292,5.809,0.708
		c2.483-1.423-0.079,2.234-0.53,2.539c3.382,2.992,4.681,6.754,8.755,3.733c2.292-1.689,4.627-3.337,7.074-4.809
		c-1.789-1.528-3.452-2.829-4.924-3.833c-0.671-1.195-0.324-1.711,1.041-1.535c1.945,1.365,3.806,2.829,5.587,4.399
		c2.956-1.584,4.851,0.051,3.438,0.503c-0.652,0.269-1.296,0.537-1.946,0.806c2.298,2.052,4.54,4.166,6.733,6.331
		c2.723-1.485,5.51-2.858,8.365-4.067c-0.629-0.502-4.887-2.659-4.016-4.002c1.203-1.848,5.58,4.801,8.828,2.177
		c2.7-0.897-0.707,2.192-1.238,2.398c2.481,2.164,4.822,4.483,7.094,6.867c0.77-0.29,5.156-2.736,5.736-1.04
		c-0.58,1.84-2.037,2.674-4.379,2.512c2.434,2.638,4.066,6.775,7.682,5.595c4.801-1.578,2.475,1.018-0.879,2.263
		c4.118,5.028,6.911,8.933,7.18,9.308C111.675,97.916,111.604,98.355,111.533,98.786z M86.707,85.023
		c2.489,2.645,4.683,5.015,6.352,6.854c2.383-1.443,5.361-3.084,8.445-4.449c-1.826-2.172-3.691-4.308-5.63-6.387
		C92.769,82.251,89.721,83.601,86.707,85.023z M87.352,72.745c-2.774,1.125-5.666,2.539-8.588,4.109
		c2.236,2.228,4.436,4.478,6.605,6.769c3.002-1.443,6.049-2.801,9.141-4.039C92.195,77.166,89.764,74.811,87.352,72.745z
		 M74.408,79.309c-2.659,1.556-5.277,3.19-7.852,4.88c2.243,2.271,4.294,4.399,6.021,6.203c3.294-1.91,7.036-3.933,11.039-5.913
		C80.575,81.289,78.68,76.805,74.408,79.309z"/>
</g>
</svg>
