<?xml version="1.0" encoding="utf-8"?>
<!-- Generator: Adobe Illustrator 16.0.0, SVG Export Plug-In . SVG Version: 6.00 Build 0)  -->
<!DOCTYPE svg PUBLIC "-//W3C//DTD SVG 1.1//EN" "http://www.w3.org/Graphics/SVG/1.1/DTD/svg11.dtd">
<svg version="1.1" id="Layer_1" xmlns="http://www.w3.org/2000/svg" xmlns:xlink="http://www.w3.org/1999/xlink" x="0px" y="0px"
	 width="150px" height="250px" viewBox="0 0 150 250" enable-background="new 0 0 150 250" xml:space="preserve">
<g>
	<path fill="#D5AE6C" d="M17.369,125.229c-10.821,0-8.879,8.921-8.622,17.256c0.317,10.207,1.25,20.479,3.91,30.369
		c5.65,20.97,19.873,36.582,39.396,45.797c5.444,2.576,11.322,4.765,15.888,8.834c2.587,2.313,2.317,7.96,5.404,9.023
		c5.049,1.72,4.774-3.012,6.176-6.005c2.486-5.319,10.502-8.387,15.463-10.545c19.992-8.707,35.338-23.769,41.645-44.894
		c2.607-8.729,11.979-48.533-1.672-49.742c-10.379-0.915-21.156-0.095-31.564-0.095C74.721,125.229,46.045,125.229,17.369,125.229"
		/>
	<path fill="#875539" d="M134.008,116.675c10.045,0,12.834-10.251,11.352-19.015c-1.83-10.819-14.539-19.442-22.801-25.5
		c-10.33-7.576-21.762-13.568-33.83-17.864c-11.21-3.998-6.871-15.008-7.324-24.646c-0.186-3.739,0.053-9.491-4.776-10.284
		c-3.612-0.594-6.731,0.624-7.598,4.42c-1.655,7.3,3.575,23.16-3.004,28.09c-4.818,3.612-11.805,4.969-17.251,7.537
		c-5.702,2.69-11.201,5.79-16.461,9.282c-8.83,5.872-21.187,14.07-26.072,23.802c-3.452,6.862-3.087,23.16,6.949,24.079
		c3.417,0.309,6.95,0.1,10.381,0.1c13.12,0,26.242,0,39.368,0C86.625,116.675,110.322,116.675,134.008,116.675"/>
</g>
</svg>
