<?xml version="1.0" encoding="utf-8"?>
<!-- Generator: Adobe Illustrator 16.0.0, SVG Export Plug-In . SVG Version: 6.00 Build 0)  -->
<!DOCTYPE svg PUBLIC "-//W3C//DTD SVG 1.1//EN" "http://www.w3.org/Graphics/SVG/1.1/DTD/svg11.dtd">
<svg version="1.1" id="Layer_1" xmlns="http://www.w3.org/2000/svg" xmlns:xlink="http://www.w3.org/1999/xlink" x="0px" y="0px"
	 width="150px" height="250px" viewBox="0 0 150 250" enable-background="new 0 0 150 250" xml:space="preserve">
<g>
	<path fill="#87553A" d="M41.467,126.934c-1.532,6.398-6.185,12.833-6.185,12.833s-16.683,1.722-20.902-5.605l-5.331-9.219
		c4.384,0.272,10.163-1.945,14.956-4.71c1.141-0.659,2.285-1.392,3.398-2.169c1.106,0.073,2.284,0.202,3.044,0.438
		C33.343,119.373,38.51,121.645,41.467,126.934z M20.406,115.614c-0.163-4.504,2.745-7.811,4.869-8.72
		c2.231-0.952,4.82-1.392,8.146-1.392c0.609,0,1.171,0.055,1.775,0.076c0.046-0.809-0.034-1.59-0.44-2.295
		c-4.904-8.495-13.694-7.826-22.187-2.929l-6.583-8.919L4.302,97.27l6.134,4.462c-7.151,4.856-10.954,11.571-6.47,19.325
		c2.198,3.801,9.561,2.341,16.598-1.186L20.406,115.614z M146.637,97.122c-6.796-9.577-20.464-12.906-25.702-5.189
		c-3.665,5.391-1.543,13.686,6.371,24.049c9.911,12.964,11.783,23.675,8.496,35.132c-7.023,24.455-26.96,27.827-45.769,32.306
		c-11.341,8.835-26.67,8.447-30.871,11.123c-1.805,1.153-6.397,1.057-7.328,0.446c-0.94-0.613,1.791-1.755,2.565-2.224
		c-2.117,0.065-4.158,0.729-5.833,1.342c0.44-1.771,3.466-5.783,5.055-5.677c-2.938-2.819-11.421-2.376-18.232-0.334
		c-0.121-2.34,0.869-4.295,2.829-5.312c2.211-1.143,3.716-1.679,8.101-2.388c0.038-4.593-6.465-8.987-7.421-15.165
		c-2.122-13.672,6.021-15.714,7.316-24.501c2.714-18.504-11.345-23.86-14.919-24.954c-2.09-0.638-6.368-1.25-8.043-0.278
		c-0.116-3.181,1.967-5.507,3.152-6.01c6.431-2.747,15.674,0.461,17.898-1.473c0.14-3.559,1.179-8.943,1.832-10.761
		c0.867-2.409-8.057,1.684-12.701-2.793c-1.575-1.521-5.188-2.475-5.236-5.474c-0.102-5.961,10.049-12.999,19.481-17.233
		c-0.193-1.254-0.099-10.099,3.082-8.728c3.186,1.37,5.37,4.739,5.37,4.739s3.866-13.256,6.884-10.995
		c3.017,2.253,3.888,14.563,5.059,16.617c1.174,2.055,3.614,1.847,6.036,7.514c3.696,8.656-1.278,10.872,2.283,17.139
		c6.664,11.734,27.97,32.646,26.392,58.013c-0.269,4.401-1.034,8.185-2.076,11.554c0.015,0,0.029,0.011,0.036,0.011
		c12.292-34.064-10.688-55.153-18.561-77.328c3.374-13.32,11.079-25.249,25.335-29.738C128.492,53.967,151.6,70.467,146.637,97.122z
		 M47.897,79.305c-0.773-1.35-3.105-1.464-5.195-0.258c-2.09,1.208-3.147,3.276-2.367,4.627c0.774,1.351,3.101,1.473,5.188,0.264
		C47.612,82.729,48.672,80.653,47.897,79.305z M42.296,79.744c-1.329,0.769-1.919,2.218-1.329,3.25
		c0.59,1.03,2.148,1.232,3.475,0.475c1.331-0.768,1.928-2.219,1.331-3.249C45.176,79.19,43.625,78.967,42.296,79.744z"/>
</g>
</svg>
