<?xml version="1.0" encoding="utf-8"?>
<!-- Generator: Adobe Illustrator 16.0.0, SVG Export Plug-In . SVG Version: 6.00 Build 0)  -->
<!DOCTYPE svg PUBLIC "-//W3C//DTD SVG 1.1//EN" "http://www.w3.org/Graphics/SVG/1.1/DTD/svg11.dtd">
<svg version="1.1" id="Layer_1" xmlns="http://www.w3.org/2000/svg" xmlns:xlink="http://www.w3.org/1999/xlink" x="0px" y="0px"
	 width="150px" height="250px" viewBox="0 0 150 250" enable-background="new 0 0 150 250" xml:space="preserve">
<path fill="#D5AE6C" d="M145.792,75.377c-0.188,0-0.375-0.093-0.563-0.093c0.75,0.468,1.313,1.311,1.688,2.061
	c1.03,2.156,1.499,4.5,1.593,6.843c0.188,2.812-0.187,6.465-2.437,8.435c-0.655-0.938-0.469-1.875-0.938-2.907
	c-0.469-1.217-1.499-2.248-2.437-3.185c-1.874-1.781-4.311-3-6.842-3.749c-1.312-0.375-2.717-0.75-4.123-0.563
	c-1.405,0.188-2.625,0.75-3.844,1.406c-5.903,3.28-7.871,9.279-6.466,15.653c0.374,1.781,0.938,3.561,1.779,5.248
	c0.844,1.593,1.875,3.187,2.812,4.687c7.967,12.466,12.373,27.554,9.654,42.362c-1.688,9.468-9.654,17.152-18.838,20.058
	c-4.875,1.499-10.216,1.78-14.902-0.28c-3.28,3.092-6.374,5.53-10.965,6.28c-4.124,0.655-8.061,0.282-11.997-1.124
	c-0.094,1.124-1.031,1.968-2.062,2.343c-1.031,0.374-2.156,0.469-3.281,0.469c-1.968,0-3.936,0.094-5.998,0.094
	c-7.591,0.094-15.089-0.657-22.775,0.094c-1.968,0.187-3.937,0.468-5.904,0c-1.219-0.282-2.156-0.563-3.374-0.094
	c-0.188,0.094-2.156,0.844-1.688,1.313c-0.937-0.844-0.75-2.438,0.375-3c-0.844,0.093-1.781,0.093-2.625,0.188
	c-0.469,0-0.938,0.093-1.312,0.28c-0.375,0.188-0.75,0.562-0.844,1.03c0,0.095,0,0.282-0.094,0.375
	c-1.031-1.968,0.563-3.749,2.437-4.029c0.281-0.846,0.937-1.596,1.687-2.064c2.437-1.499,4.686-0.938,7.217-0.187
	c4.967,1.405,10.497,0.748,15.089-1.781c-2.718-4.124-4.78-8.717-5.53-13.497c-0.75-4.872,0-10.027,2.718-14.151
	c-0.375-0.375,0.187-0.187-0.282-0.469c-2.624-1.688-5.436-4.031-8.341-5.154c-1.406-0.563-2.062,0.375-3.561,0.655
	c-1.5,0.281-3,0.375-4.405,0.095c-3.749-0.469-7.123-2.343-10.216-4.499c-2.437-1.688-4.874-3.749-7.873-3.563
	c-0.188,0.282-0.469,0.469-0.656,0.75c0,0.094-0.094,0.094-0.094,0.188c0,0.095,0.094,0.188,0.094,0.281
	c0.563,0.563,1.406,1.031,2.249,1.124c-1.218,0.751-2.812,0.938-4.124,0.469c0.281,0.751,1.031,1.406,1.875,1.501
	c-2.156,0.842-4.592,0.094-6.186-1.501c-0.843,0.375-1.968,0.096-2.718-0.562c-0.75-0.655-1.218-1.5-1.687-2.344
	c-0.375-0.748-0.75-1.498-0.656-2.249c0.094-0.749,0.563-1.406,1.031-1.968c1.5-1.781,3.093-3.749,5.342-4.404
	c0.938-0.282,1.875-0.282,2.718-0.375c2.437-0.093,4.874-0.187,7.311-0.282c1.125-0.093,2.249-0.093,3.093-0.749
	c0.656-0.469,1.03-1.219,1.406-1.875c1.687-3.469,2.343-7.123,2.062-10.967c-3.187,0.095-6.373,0-9.466-0.28
	c-1.968-0.188-4.03-0.562-5.623-1.781c-0.844-0.656-1.406-1.406-2.437-1.688c-1.031-0.28-2.062-0.28-3.093-0.655
	c-1.875-0.655-3.468-2.061-4.124-3.936c-5.905-0.282-1.219-6.092,0.375-8.249c1.781-2.343,2.437-5.437,4.218-7.78
	c1.593-1.968,3.937-3.28,6.186-4.404c4.78-2.437,9.56-4.967,14.902-5.717c1.125-1.031,2.437-2.343,3.937-2.718
	c1.499-0.469,3.374-0.093,4.217,1.219c0.281,0.468,0.375,0.937,0.656,1.406c0.563,0.937,1.594,1.312,2.625,1.78
	c6.279,2.906,11.153,8.247,16.495,12.747c1.968,1.686,4.124,3.374,6.749,3.561c2.531,0.188,4.874,0.093,7.404,0.188
	c9.655,0.374,19.027,2.717,27.835,6.654c-3.092-3.28-5.248-7.498-5.997-11.998c0.749,0.375,1.406,0.844,2.154,1.219
	c-0.655-4.311,0.188-8.811,2.532-12.56c-0.096,0.562,0,1.219,0.373,1.688c3.749-5.624,9.748-9.841,16.309-11.529
	c-0.187,0.656-0.28,1.219-0.469,1.875c5.812-2.905,12.746-3.656,19.026-1.968c-0.281,0.469-0.844,0.844-1.219,1.124
	c2.812,0.844,5.623,1.781,8.155,3.28c2.436,1.5,4.686,3.655,5.717,6.467C146.634,75.564,146.166,75.471,145.792,75.377z"/>
</svg>
