<?xml version="1.0" encoding="utf-8"?>
<!-- Generator: Adobe Illustrator 16.0.0, SVG Export Plug-In . SVG Version: 6.00 Build 0)  -->
<!DOCTYPE svg PUBLIC "-//W3C//DTD SVG 1.1//EN" "http://www.w3.org/Graphics/SVG/1.1/DTD/svg11.dtd">
<svg version="1.1" id="Layer_1" xmlns="http://www.w3.org/2000/svg" xmlns:xlink="http://www.w3.org/1999/xlink" x="0px" y="0px"
	 width="150px" height="250px" viewBox="0 0 150 250" enable-background="new 0 0 150 250" xml:space="preserve">
<g>
	<path fill="#D5AE6C" d="M138.227,131.673c-5.131-0.518-10.359-0.218-15.535-0.021c-2.592,0.099-4.391-0.61-5.975-3.542
		c2.413,0.12,4.207,0.329,5.993,0.276c5.01-0.149,10.019-0.337,15.022-0.641c5.324-0.324,7.621-4.12,6.191-9.963
		c-1.957-7.995-4.693-15.646-11.908-20.726c-2.42-1.705-4.771-3.594-6.817-5.722c-3.155-3.278-6.005-6.846-9.017-10.265
		c-0.895-1.017-1.892-1.946-2.841-2.914c-1.137,1.191-3.015,2.243-3.268,3.598c-0.67,3.608-0.688,7.345-0.874,11.034
		c-0.102,2.011-0.018,4.03-0.018,6.047c-0.334,0.097-0.669,0.196-1.003,0.294c-1.102-1.187-2.205-2.372-3.396-3.654
		c-3.323,2.262-6.291,4.807-9.693,6.453c-3.243,1.568-6.914,3.009-10.438,3.112c-20.731,0.605-35.919,10.015-45.378,28.28
		c-2.736,5.283-4.012,11.321-5.826,16.629c-0.521-7.704,1.083-15.534,4.576-22.892c5.303-11.167,13.268-19.559,25.48-23.29
		c4.417-1.35,7.396-4.495,9.084-8.702c4.539-11.308,3.087-22.422-3.133-32.397C58.362,44.88,29.682,36.195,10.043,59.671
		c-2.781,3.325-5.122,7.015-5.808,11.972c15.79-11.298,25.171-12.966,33.25-5.905c-6.899,0.087-13.666-2.039-20.886,0.959
		c2.402,0.391,4.007,0.548,5.562,0.921c7.392,1.773,13.418,5.601,15.97,12.986c2.605,7.542-0.356,14.071-5.396,19.744
		c-1.219,1.37-2.793,2.422-4.163,3.664c-2.376,2.155-5.077,4.068-7.02,6.565c-12.525,16.098-13.336,33.634-5.228,51.719
		c8.016,17.879,22.944,26.131,41.834,27.21c11.465,0.656,23.013-0.026,34.52-0.211c5.46-0.088,10.915-0.416,16.372-0.636
		c0.044-0.33,0.086-0.659,0.127-0.989c-1.595-0.384-3.173-0.977-4.79-1.111c-3.693-0.307-7.42-0.251-11.109-0.602
		c-5.018-0.475-6.283-3.196-3.18-7.21c11.788-15.251,4.626-37.573-11.623-45.415c-0.642-0.309-1.212-0.766-2.439-1.556
		c5.074,0.037,8.564,1.829,11.335,4.801c3.28,3.521,6.189,7.384,9.399,10.976c6.711,7.511,11.854,8.354,20.605,3.568
		c7.9-4.32,16.095-7.591,25.325-7.572c0.916,0.002,2.393-1.179,2.662-2.091C146.865,136.384,144.094,132.264,138.227,131.673z
		 M123.999,105.63c0.206-2.229,1.237-3.768,3.784-3.568c3.574,0.281,7.373,4.687,6.549,8.093c-0.332,1.379-2.006,2.432-2.582,3.082
		C127.244,112.797,123.706,108.795,123.999,105.63z"/>
</g>
</svg>
