<?xml version="1.0" encoding="utf-8"?>
<!-- Generator: Adobe Illustrator 16.0.0, SVG Export Plug-In . SVG Version: 6.00 Build 0)  -->
<!DOCTYPE svg PUBLIC "-//W3C//DTD SVG 1.1//EN" "http://www.w3.org/Graphics/SVG/1.1/DTD/svg11.dtd">
<svg version="1.1" id="Layer_1" xmlns="http://www.w3.org/2000/svg" xmlns:xlink="http://www.w3.org/1999/xlink" x="0px" y="0px"
	 width="150px" height="250px" viewBox="0 0 150 250" enable-background="new 0 0 150 250" xml:space="preserve">
<g>
	<g>
		<g>
			<g>
				<path fill="#693D1F" d="M78.533,244.299v-96.361c0-2.131-1.727-3.859-3.857-3.859s-3.857,1.729-3.857,3.859v96.361H78.533z"/>
			</g>
		</g>
		<g>
			<path fill="#693D1F" d="M74.676,187.762H63.562c-8.063,0-14.625-6.562-14.625-14.625v-53.252c0-1.605,1.301-2.907,2.907-2.907
				s2.907,1.302,2.907,2.907v53.252c0,4.858,3.953,8.81,8.811,8.81h11.114c1.605,0,2.908,1.302,2.908,2.908
				C77.584,186.46,76.281,187.762,74.676,187.762z"/>
		</g>
		<g>
			<path fill="#693D1F" d="M85.791,204.011H74.676c-1.605,0-2.907-1.302-2.907-2.907s1.302-2.905,2.907-2.905h11.115
				c4.859,0,8.811-3.954,8.811-8.813v-53.253c0-1.605,1.301-2.907,2.906-2.907c1.607,0,2.906,1.302,2.906,2.907v53.253
				C100.414,197.449,93.855,204.011,85.791,204.011z"/>
		</g>
		<g>
			<g>
				<path fill="#4CA547" d="M150.297,80.657c0-19.702-15.879-35.688-35.537-35.873c-10.613-10.169-25-16.429-40.858-16.429
					c-0.23,0-0.458,0.006-0.687,0.008c-32.312,0.369-58.393,26.672-58.393,59.071c0,0.912,0.027,1.818,0.068,2.72
					C6.902,92.213,1,99.463,1,108.095c0,10.163,8.181,18.414,18.317,18.529c0.072,0.001,0.143,0.003,0.215,0.003
					c0.009,0,0.018,0,0.027,0c-0.013,0.354-0.027,0.707-0.027,1.063c0,16.177,13.023,29.311,29.158,29.496
					c0.114,0,0.228,0.004,0.343,0.004c6.102,0,11.771-1.854,16.476-5.027c6.078,5.935,14.353,9.629,23.493,9.732
					c0.133,0.002,0.266,0.006,0.398,0.006c16.086,0,29.572-11.105,33.227-26.065c0.252,0.01,0.506,0.022,0.76,0.025
					c0.076,0.002,0.148,0.004,0.225,0.004c10.674,0,19.326-8.652,19.326-19.327c0-3.886-1.152-7.502-3.127-10.533
					C146.289,99.513,150.297,90.554,150.297,80.657z"/>
			</g>
			<g>
				<path fill="#299D48" d="M115.445,97.084c1.119,2.288,1.748,4.858,1.748,7.576c0,9.393-7.301,18.288-20.547,17.449
					c0,0-4.104,3.544-7.492,3.431c-6.391-0.215-11.654-4.856-12.295-11.081c-0.227,0.937-0.35,1.915-0.35,2.921
					c0,6.826,5.533,12.358,12.359,12.358c3.449,0,6.568-1.414,8.811-3.693c1.928,0.744,4.021,1.156,6.211,1.156
					c9.543,0,17.277-7.735,17.277-17.276C121.168,104.828,118.959,100.247,115.445,97.084z"/>
			</g>
			<g>
				<path fill="#299D48" d="M45.467,128.766c-7.325,0-13.851-3.404-18.091-8.714c0.089,8.852,7.285,16.001,16.159,16.001
					c7.379,0,13.591-4.948,15.529-11.706C55.245,127.125,50.548,128.766,45.467,128.766z"/>
			</g>
			<g>
				<path fill="#299D48" d="M86.625,87.936c-5.523,2.285-8.721-1.458-8.721-1.458c-1.838,2-5.836,4.745-7.693,5.781
					c-7.03,3.928-14.96,2.3-21.419-2.622c4.833,8.448,15.574,11.451,24.09,6.692c2.692-1.504,4.834-3.605,6.364-6.044
					c2.688,1.344,5.971,1.378,8.791-0.197c3.746-2.093,5.494-6.367,4.563-10.345C92.488,82.675,89.355,86.806,86.625,87.936z"/>
			</g>
		</g>
	</g>
</g>
</svg>
