<?xml version="1.0" encoding="utf-8"?>
<!-- Generator: Adobe Illustrator 16.0.0, SVG Export Plug-In . SVG Version: 6.00 Build 0)  -->
<!DOCTYPE svg PUBLIC "-//W3C//DTD SVG 1.1//EN" "http://www.w3.org/Graphics/SVG/1.1/DTD/svg11.dtd">
<svg version="1.1" id="Layer_1" xmlns="http://www.w3.org/2000/svg" xmlns:xlink="http://www.w3.org/1999/xlink" x="0px" y="0px"
	 width="150px" height="250px" viewBox="0 0 150 250" enable-background="new 0 0 150 250" xml:space="preserve">
<g>
	<g>
		<path fill="#57B347" d="M62.857,24.561C50.547,44.806,31.98,77.895,31.98,93.306c0,23.053,18.557,41.769,41.548,42.03
			c0.057,0.001,0.115,0.002,0.172,0.002V18.489C69.514,18.478,65.325,20.503,62.857,24.561z"/>
	</g>
	<g>
		<path fill="#297D3E" d="M84.396,24.439c-2.471-3.96-6.582-5.938-10.696-5.95v116.849c0.106,0.002,0.211,0.005,0.316,0.005
			c23.216,0,42.036-18.821,42.036-42.037C116.053,77.764,96.996,44.64,84.396,24.439z"/>
	</g>
	<g>
		<g>
			<path fill="#693D1F" d="M78.719,251.193V120.792c0-2.597-2.105-4.702-4.702-4.702c-2.596,0-4.701,2.105-4.701,4.702v130.401
				H78.719z"/>
		</g>
	</g>
	<g>
		<g>
			<path fill="#57B347" d="M27.151,125.616c10.479,2.555,27.107,7.229,32.068,12.19c7.42,7.42,7.472,19.418,0.155,26.903
				c-0.019,0.019-0.037,0.037-0.055,0.056l-37.613-37.613C23.05,125.801,25.05,125.104,27.151,125.616z"/>
		</g>
		<g>
			<path fill="#297D3E" d="M20.179,132.512c-0.48-2.071,0.206-4.031,1.527-5.359l37.613,37.613
				c-0.033,0.034-0.066,0.069-0.101,0.104c-7.473,7.474-19.59,7.474-27.063,0C27.153,159.866,22.625,143.069,20.179,132.512z"/>
		</g>
		<g>
			<g>
				<path fill="#693D1F" d="M74.625,184.554L48.853,158.78c-0.909-0.909-0.909-2.383,0-3.292c0.909-0.908,2.383-0.908,3.292,0
					l25.773,25.773L74.625,184.554z"/>
			</g>
		</g>
	</g>
	<g>
		<g>
			<path fill="#57B347" d="M122.851,162.871c-10.48,2.555-27.108,7.229-32.069,12.189c-7.42,7.42-7.471,19.419-0.154,26.903
				c0.018,0.02,0.037,0.038,0.055,0.057l37.613-37.613C126.951,163.056,124.95,162.359,122.851,162.871z"/>
		</g>
		<g>
			<path fill="#297D3E" d="M129.822,169.766c0.479-2.07-0.207-4.03-1.527-5.358l-37.613,37.613c0.033,0.034,0.066,0.068,0.1,0.103
				c7.474,7.474,19.59,7.474,27.064,0C122.847,197.121,127.376,180.323,129.822,169.766z"/>
		</g>
		<g>
			<g>
				<path fill="#693D1F" d="M75.375,221.809l25.773-25.773c0.909-0.909,0.909-2.383,0-3.292s-2.383-0.909-3.292,0l-25.773,25.773
					L75.375,221.809z"/>
			</g>
		</g>
	</g>
</g>
</svg>
