<?xml version="1.0" encoding="utf-8"?>
<!-- Generator: Adobe Illustrator 16.0.0, SVG Export Plug-In . SVG Version: 6.00 Build 0)  -->
<!DOCTYPE svg PUBLIC "-//W3C//DTD SVG 1.1//EN" "http://www.w3.org/Graphics/SVG/1.1/DTD/svg11.dtd">
<svg version="1.1" id="Layer_1" xmlns="http://www.w3.org/2000/svg" xmlns:xlink="http://www.w3.org/1999/xlink" x="0px" y="0px"
	 width="150px" height="250px" viewBox="0 0 150 250" enable-background="new 0 0 150 250" xml:space="preserve">
<g>
	<g>
		<path fill="#297D3E" d="M76,16.485c-0.288,0-0.573,0.008-0.86,0.011v147.979c0.287,0.002,0.572,0.011,0.86,0.011
			c40.869,0,74-33.132,74-74C150,49.616,116.869,16.485,76,16.485z"/>
	</g>
	<g>
		<path fill="#57B347" d="M2,90.485c0,40.582,32.667,73.527,73.14,73.99V16.496C34.668,16.958,2,49.904,2,90.485z"/>
	</g>
	<g>
		<g>
			<path fill="#693D1F" d="M80.109,250V106.346c0-2.269-1.84-4.109-4.109-4.109c-2.269,0-4.109,1.841-4.109,4.109V250H80.109z"/>
		</g>
	</g>
	<g>
		<g>
			<path fill="#693D1F" d="M75.175,135.925l-11.337-27.331c-0.773-1.863-2.911-2.747-4.774-1.974
				c-1.864,0.772-2.748,2.91-1.975,4.773l18.086,43.601V135.925z"/>
		</g>
	</g>
	<g>
		<g>
			<path fill="#693D1F" d="M76.991,145.415l11.337-27.331c0.773-1.863,2.91-2.747,4.774-1.975c1.863,0.773,2.747,2.912,1.975,4.774
				l-18.086,43.602V145.415z"/>
		</g>
	</g>
</g>
</svg>
